<?xml version="1.0" encoding="UTF-8"?>
<svg xmlns="http://www.w3.org/2000/svg" xmlns:xlink="http://www.w3.org/1999/xlink" width="101pt" height="80pt" viewBox="0 0 101 80" version="1.1">
<g id="surface66358">
<rect x="0" y="0" width="101" height="80" style="fill:rgb(100%,100%,100%);fill-opacity:1;stroke:none;"/>
<path style="fill-rule:evenodd;fill:rgb(74.901962%,74.901962%,74.901962%);fill-opacity:1;stroke-width:0.1;stroke-linecap:butt;stroke-linejoin:miter;stroke:rgb(0%,0%,0%);stroke-opacity:1;stroke-miterlimit:10;" d="M 33.868441 16.974177 L 34.836215 16.974177 L 34.836215 17.974177 L 33.868441 17.974177 Z M 33.868441 16.974177 " transform="matrix(20,0,0,20,-656.368824,-318.256971)"/>
<path style="fill:none;stroke-width:0.1;stroke-linecap:butt;stroke-linejoin:miter;stroke:rgb(0%,0%,0%);stroke-opacity:1;stroke-miterlimit:10;" d="M 33.868441 16.974177 L 34.836215 16.974177 L 34.836215 17.974177 L 33.868441 17.974177 Z M 33.868441 16.974177 " transform="matrix(20,0,0,20,-656.368824,-318.256971)"/>
<path style="fill-rule:evenodd;fill:rgb(74.901962%,74.901962%,74.901962%);fill-opacity:1;stroke-width:0.1;stroke-linecap:butt;stroke-linejoin:miter;stroke:rgb(0%,0%,0%);stroke-opacity:1;stroke-miterlimit:10;" d="M 34.868441 16.974177 L 35.836215 16.974177 L 35.836215 17.974177 L 34.868441 17.974177 Z M 34.868441 16.974177 " transform="matrix(20,0,0,20,-656.368824,-318.256971)"/>
<path style="fill:none;stroke-width:0.1;stroke-linecap:butt;stroke-linejoin:miter;stroke:rgb(0%,0%,0%);stroke-opacity:1;stroke-miterlimit:10;" d="M 34.868441 16.974177 L 35.836215 16.974177 L 35.836215 17.974177 L 34.868441 17.974177 Z M 34.868441 16.974177 " transform="matrix(20,0,0,20,-656.368824,-318.256971)"/>
<path style="fill-rule:evenodd;fill:rgb(74.901962%,74.901962%,74.901962%);fill-opacity:1;stroke-width:0.1;stroke-linecap:butt;stroke-linejoin:miter;stroke:rgb(0%,0%,0%);stroke-opacity:1;stroke-miterlimit:10;" d="M 35.868441 16.974177 L 36.836215 16.974177 L 36.836215 17.974177 L 35.868441 17.974177 Z M 35.868441 16.974177 " transform="matrix(20,0,0,20,-656.368824,-318.256971)"/>
<path style="fill:none;stroke-width:0.1;stroke-linecap:butt;stroke-linejoin:miter;stroke:rgb(0%,0%,0%);stroke-opacity:1;stroke-miterlimit:10;" d="M 35.868441 16.974177 L 36.836215 16.974177 L 36.836215 17.974177 L 35.868441 17.974177 Z M 35.868441 16.974177 " transform="matrix(20,0,0,20,-656.368824,-318.256971)"/>
<path style="fill-rule:evenodd;fill:rgb(74.901962%,74.901962%,74.901962%);fill-opacity:1;stroke-width:0.1;stroke-linecap:butt;stroke-linejoin:miter;stroke:rgb(0%,0%,0%);stroke-opacity:1;stroke-miterlimit:10;" d="M 36.868441 16.974177 L 37.836215 16.974177 L 37.836215 17.974177 L 36.868441 17.974177 Z M 36.868441 16.974177 " transform="matrix(20,0,0,20,-656.368824,-318.256971)"/>
<path style="fill:none;stroke-width:0.1;stroke-linecap:butt;stroke-linejoin:miter;stroke:rgb(0%,0%,0%);stroke-opacity:1;stroke-miterlimit:10;" d="M 36.868441 16.974177 L 37.836215 16.974177 L 37.836215 17.974177 L 36.868441 17.974177 Z M 36.868441 16.974177 " transform="matrix(20,0,0,20,-656.368824,-318.256971)"/>
<path style="fill-rule:evenodd;fill:rgb(74.901962%,74.901962%,74.901962%);fill-opacity:1;stroke-width:0.1;stroke-linecap:butt;stroke-linejoin:miter;stroke:rgb(0%,0%,0%);stroke-opacity:1;stroke-miterlimit:10;" d="M 32.868441 16.974177 L 33.836215 16.974177 L 33.836215 17.974177 L 32.868441 17.974177 Z M 32.868441 16.974177 " transform="matrix(20,0,0,20,-656.368824,-318.256971)"/>
<path style="fill:none;stroke-width:0.1;stroke-linecap:butt;stroke-linejoin:miter;stroke:rgb(0%,0%,0%);stroke-opacity:1;stroke-miterlimit:10;" d="M 32.868441 16.974177 L 33.836215 16.974177 L 33.836215 17.974177 L 32.868441 17.974177 Z M 32.868441 16.974177 " transform="matrix(20,0,0,20,-656.368824,-318.256971)"/>
<path style="fill-rule:evenodd;fill:rgb(11.764706%,56.470591%,100%);fill-opacity:1;stroke-width:0.1;stroke-linecap:butt;stroke-linejoin:miter;stroke:rgb(0%,0%,0%);stroke-opacity:1;stroke-miterlimit:10;" d="M 33.868441 17.974177 L 34.836215 17.974177 L 34.836215 18.974177 L 33.868441 18.974177 Z M 33.868441 17.974177 " transform="matrix(20,0,0,20,-656.368824,-318.256971)"/>
<path style="fill:none;stroke-width:0.1;stroke-linecap:butt;stroke-linejoin:miter;stroke:rgb(0%,0%,0%);stroke-opacity:1;stroke-miterlimit:10;" d="M 33.868441 17.974177 L 34.836215 17.974177 L 34.836215 18.974177 L 33.868441 18.974177 Z M 33.868441 17.974177 " transform="matrix(20,0,0,20,-656.368824,-318.256971)"/>
<path style="fill-rule:evenodd;fill:rgb(11.764706%,56.470591%,100%);fill-opacity:1;stroke-width:0.1;stroke-linecap:butt;stroke-linejoin:miter;stroke:rgb(0%,0%,0%);stroke-opacity:1;stroke-miterlimit:10;" d="M 34.868441 17.974177 L 35.836215 17.974177 L 35.836215 18.974177 L 34.868441 18.974177 Z M 34.868441 17.974177 " transform="matrix(20,0,0,20,-656.368824,-318.256971)"/>
<path style="fill:none;stroke-width:0.1;stroke-linecap:butt;stroke-linejoin:miter;stroke:rgb(0%,0%,0%);stroke-opacity:1;stroke-miterlimit:10;" d="M 34.868441 17.974177 L 35.836215 17.974177 L 35.836215 18.974177 L 34.868441 18.974177 Z M 34.868441 17.974177 " transform="matrix(20,0,0,20,-656.368824,-318.256971)"/>
<path style="fill-rule:evenodd;fill:rgb(11.764706%,56.470591%,100%);fill-opacity:1;stroke-width:0.1;stroke-linecap:butt;stroke-linejoin:miter;stroke:rgb(0%,0%,0%);stroke-opacity:1;stroke-miterlimit:10;" d="M 35.868441 17.974177 L 36.836215 17.974177 L 36.836215 18.974177 L 35.868441 18.974177 Z M 35.868441 17.974177 " transform="matrix(20,0,0,20,-656.368824,-318.256971)"/>
<path style="fill:none;stroke-width:0.1;stroke-linecap:butt;stroke-linejoin:miter;stroke:rgb(0%,0%,0%);stroke-opacity:1;stroke-miterlimit:10;" d="M 35.868441 17.974177 L 36.836215 17.974177 L 36.836215 18.974177 L 35.868441 18.974177 Z M 35.868441 17.974177 " transform="matrix(20,0,0,20,-656.368824,-318.256971)"/>
<path style="fill-rule:evenodd;fill:rgb(11.764706%,56.470591%,100%);fill-opacity:1;stroke-width:0.1;stroke-linecap:butt;stroke-linejoin:miter;stroke:rgb(0%,0%,0%);stroke-opacity:1;stroke-miterlimit:10;" d="M 36.868441 17.974177 L 37.836215 17.974177 L 37.836215 18.974177 L 36.868441 18.974177 Z M 36.868441 17.974177 " transform="matrix(20,0,0,20,-656.368824,-318.256971)"/>
<path style="fill:none;stroke-width:0.1;stroke-linecap:butt;stroke-linejoin:miter;stroke:rgb(0%,0%,0%);stroke-opacity:1;stroke-miterlimit:10;" d="M 36.868441 17.974177 L 37.836215 17.974177 L 37.836215 18.974177 L 36.868441 18.974177 Z M 36.868441 17.974177 " transform="matrix(20,0,0,20,-656.368824,-318.256971)"/>
<path style="fill-rule:evenodd;fill:rgb(11.764706%,56.470591%,100%);fill-opacity:1;stroke-width:0.1;stroke-linecap:butt;stroke-linejoin:miter;stroke:rgb(0%,0%,0%);stroke-opacity:1;stroke-miterlimit:10;" d="M 32.868441 17.974177 L 33.836215 17.974177 L 33.836215 18.974177 L 32.868441 18.974177 Z M 32.868441 17.974177 " transform="matrix(20,0,0,20,-656.368824,-318.256971)"/>
<path style="fill:none;stroke-width:0.1;stroke-linecap:butt;stroke-linejoin:miter;stroke:rgb(0%,0%,0%);stroke-opacity:1;stroke-miterlimit:10;" d="M 32.868441 17.974177 L 33.836215 17.974177 L 33.836215 18.974177 L 32.868441 18.974177 Z M 32.868441 17.974177 " transform="matrix(20,0,0,20,-656.368824,-318.256971)"/>
<path style="fill:none;stroke-width:0.1;stroke-linecap:butt;stroke-linejoin:miter;stroke:rgb(100%,0%,0%);stroke-opacity:1;stroke-miterlimit:10;" d="M 33.35223 16.974177 C 33.338754 15.851325 33.928402 15.615388 34.207308 16.509528 " transform="matrix(20,0,0,20,-656.368824,-318.256971)"/>
<path style="fill-rule:evenodd;fill:rgb(100%,0%,0%);fill-opacity:1;stroke-width:0.1;stroke-linecap:butt;stroke-linejoin:miter;stroke:rgb(100%,0%,0%);stroke-opacity:1;stroke-miterlimit:10;" d="M 34.319027 16.867341 L 33.931332 16.464606 L 34.207308 16.509528 L 34.408676 16.315583 Z M 34.319027 16.867341 " transform="matrix(20,0,0,20,-656.368824,-318.256971)"/>
<path style="fill:none;stroke-width:0.1;stroke-linecap:butt;stroke-linejoin:miter;stroke:rgb(100%,0%,0%);stroke-opacity:1;stroke-miterlimit:10;" d="M 35.35223 16.974177 C 35.338754 15.851325 35.928402 15.615388 36.207308 16.509528 " transform="matrix(20,0,0,20,-656.368824,-318.256971)"/>
<path style="fill-rule:evenodd;fill:rgb(100%,0%,0%);fill-opacity:1;stroke-width:0.1;stroke-linecap:butt;stroke-linejoin:miter;stroke:rgb(100%,0%,0%);stroke-opacity:1;stroke-miterlimit:10;" d="M 36.319027 16.867341 L 35.931332 16.464606 L 36.207308 16.509528 L 36.408676 16.315583 Z M 36.319027 16.867341 " transform="matrix(20,0,0,20,-656.368824,-318.256971)"/>
<path style="fill:none;stroke-width:0.1;stroke-linecap:butt;stroke-linejoin:miter;stroke:rgb(0%,0%,100%);stroke-opacity:1;stroke-miterlimit:10;" d="M 33.35223 18.974177 C 33.617465 20.054059 33.971176 20.172028 34.204769 19.438044 " transform="matrix(20,0,0,20,-656.368824,-318.256971)"/>
<path style="fill-rule:evenodd;fill:rgb(0%,0%,100%);fill-opacity:1;stroke-width:0.1;stroke-linecap:butt;stroke-linejoin:miter;stroke:rgb(0%,0%,100%);stroke-opacity:1;stroke-miterlimit:10;" d="M 34.318441 19.080622 L 34.40516 19.632966 L 34.204769 19.438044 L 33.928597 19.481403 Z M 34.318441 19.080622 " transform="matrix(20,0,0,20,-656.368824,-318.256971)"/>
<path style="fill:none;stroke-width:0.1;stroke-linecap:butt;stroke-linejoin:miter;stroke:rgb(0%,0%,100%);stroke-opacity:1;stroke-miterlimit:10;" d="M 35.35223 18.974177 C 35.617465 20.054059 35.971176 20.172028 36.204769 19.438044 " transform="matrix(20,0,0,20,-656.368824,-318.256971)"/>
<path style="fill-rule:evenodd;fill:rgb(0%,0%,100%);fill-opacity:1;stroke-width:0.1;stroke-linecap:butt;stroke-linejoin:miter;stroke:rgb(0%,0%,100%);stroke-opacity:1;stroke-miterlimit:10;" d="M 36.318441 19.080622 L 36.40516 19.632966 L 36.204769 19.438044 L 35.928597 19.481403 Z M 36.318441 19.080622 " transform="matrix(20,0,0,20,-656.368824,-318.256971)"/>
</g>
</svg>
